<svg viewBox="0 0 22 22" fill="none" xmlns="http://www.w3.org/2000/svg">
<path fill-rule="evenodd" clip-rule="evenodd" d="M13.25 1.5C12.2835 1.5 11.5 2.28356 11.5 3.25009C11.5 3.66431 11.1642 4.00009 10.75 4.00009C10.3358 4.00009 10 3.66431 10 3.25009C10 2.2836 9.2165 1.50009 8.25 1.50009C7.2835 1.50009 6.5 2.2836 6.5 3.25009C6.5 3.66431 6.16421 4.00009 5.75 4.00009C4.50736 4.00009 3.5 5.00745 3.5 6.25009C3.5 6.67779 3.61861 7.07548 3.82432 7.41467C3.9517 7.6247 3.96815 7.8838 3.86837 8.10826C3.76858 8.33272 3.56521 8.49409 3.32394 8.54024C2.28501 8.73895 1.5 9.65366 1.5 10.7501C1.5 11.8465 2.28501 12.7612 3.32394 12.9599C3.56521 13.0061 3.76858 13.1675 3.86837 13.3919C3.96815 13.6164 3.9517 13.8755 3.82432 14.0855C3.61861 14.4247 3.5 14.8224 3.5 15.2501C3.5 16.4927 4.50736 17.5001 5.75 17.5001C6.16421 17.5001 6.5 17.8359 6.5 18.2501C6.5 19.2166 7.2835 20.0001 8.25 20.0001C9.2165 20.0001 10 19.2166 10 18.2501C10 17.8359 10.3358 17.5001 10.75 17.5001C11.1642 17.5001 11.5 17.8359 11.5 18.2501C11.5 19.2166 12.2835 20 13.25 20C14.2165 20 15 19.2165 15 18.25C15 18.0511 15.079 17.8603 15.2197 17.7197C15.3603 17.579 15.5511 17.5 15.75 17.5C16.9926 17.5 18 16.4926 18 15.25C18 14.8223 17.8814 14.4246 17.6757 14.0854C17.5483 13.8754 17.5318 13.6163 17.6316 13.3918C17.7314 13.1674 17.9348 13.006 18.1761 12.9599C19.215 12.7611 20 11.8464 20 10.75C20 9.65356 19.215 8.73886 18.1761 8.54014C17.9348 8.494 17.7314 8.33263 17.6316 8.10817C17.5318 7.8837 17.5483 7.62461 17.6757 7.41457C17.8814 7.07539 18 6.67769 18 6.25C18 5.00736 16.9926 4 15.75 4C15.3358 4 15 3.66421 15 3.25C15 2.2835 14.2165 1.5 13.25 1.5ZM10.75 20.3269C10.1539 21.0437 9.25523 21.5001 8.25 21.5001C6.69152 21.5001 5.38925 20.4031 5.0732 18.9392C3.32518 18.6206 2 17.0901 2 15.2501C2 14.8675 2.05751 14.4976 2.16442 14.1491C0.885877 13.5518 0 12.2549 0 10.7501C0 9.24526 0.885878 7.94842 2.16442 7.35105C2.05751 7.00255 2 6.6327 2 6.25009C2 4.41011 3.32518 2.87963 5.0732 2.56101C5.38925 1.09707 6.69152 9.47714e-05 8.25 9.47714e-05C9.25521 9.47714e-05 10.1538 0.456454 10.75 1.17329C11.3461 0.456411 12.2448 -1.19209e-07 13.25 0C14.8085 1.78814e-07 16.1108 1.09698 16.4268 2.56092C18.1748 2.87953 19.5 4.41001 19.5 6.25C19.5 6.63261 19.4425 7.00245 19.3356 7.35095C20.6141 7.94833 21.5 9.24516 21.5 10.75C21.5 12.2548 20.6141 13.5517 19.3356 14.149C19.4425 14.4976 19.5 14.8674 19.5 15.25C19.5 17.09 18.1748 18.6205 16.4268 18.9391C16.1108 20.403 14.8085 21.5 13.25 21.5C12.2448 21.5 11.3462 21.0437 10.75 20.3269Z" fill="#161616"/>
<path opacity="0.4" fill-rule="evenodd" clip-rule="evenodd" d="M7.38036 7.48717C7.57687 6.89764 8.12857 6.5 8.74999 6.5C9.37141 6.5 9.92311 6.89764 10.1196 7.48717L9.4081 7.72434L10.1196 7.48717L11.9615 13.0128C12.0925 13.4058 11.8801 13.8305 11.4872 13.9615C11.0942 14.0925 10.6695 13.8801 10.5385 13.4872L10.0428 12H7.45723L6.9615 13.4872C6.83052 13.8801 6.40578 14.0925 6.01282 13.9615C5.61986 13.8305 5.40749 13.4058 5.53848 13.0128L7.38036 7.48717ZM7.95723 10.5H9.54275L8.74999 8.12171L7.95723 10.5ZM14.25 6.5C14.6642 6.5 15 6.83579 15 7.25V13.25C15 13.6642 14.6642 14 14.25 14C13.8358 14 13.5 13.6642 13.5 13.25V7.25C13.5 6.83579 13.8358 6.5 14.25 6.5Z" fill="#161616"/>
</svg>
