<svg viewBox="0 0 31 33" fill="none" xmlns="http://www.w3.org/2000/svg">
<path d="M3.75 20C4.63329 20 5.16689 20.0002 5.7002 20.2168C6.41674 20.5167 6.98316 21.0833 7.2832 21.7998C7.49987 22.3331 7.5 22.8667 7.5 23.75V28.75C7.5 29.6333 7.49987 30.1669 7.2832 30.7002C6.98316 31.4167 6.41674 31.9833 5.7002 32.2832C5.16689 32.4998 4.63329 32.5 3.75 32.5C2.86705 32.5 2.33393 32.4997 1.80078 32.2832C1.08415 31.9832 0.51681 31.4168 0.216797 30.7002C0.000130239 30.1669 0 29.6333 0 28.75V23.75C0 22.8667 0.000130221 22.3331 0.216797 21.7998C0.51681 21.0832 1.08415 20.5168 1.80078 20.2168C2.33393 20.0003 2.86705 20 3.75 20ZM15.417 15.833C16.3003 15.833 16.8339 15.8331 17.3672 16.0498C18.0838 16.3498 18.6502 16.9172 18.9502 17.6338C19.1667 18.1669 19.167 18.7 19.167 19.583V28.75C19.167 29.6333 19.1669 30.1669 18.9502 30.7002C18.6502 31.4167 18.0837 31.9832 17.3672 32.2832C16.8339 32.4999 16.3003 32.5 15.417 32.5C14.5337 32.5 14.0001 32.4999 13.4668 32.2832C12.7503 31.9832 12.1838 31.4167 11.8838 30.7002C11.6671 30.1669 11.667 29.6333 11.667 28.75V19.583C11.667 18.7 11.6673 18.1669 11.8838 17.6338C12.1838 16.9172 12.7502 16.3498 13.4668 16.0498C14.0001 15.8331 14.5337 15.833 15.417 15.833ZM27.084 10C27.9669 10 28.5001 10.0003 29.0332 10.2168C29.7498 10.5168 30.3172 11.0832 30.6172 11.7998C30.8339 12.3331 30.834 12.8667 30.834 13.75V28.75C30.834 29.6333 30.8339 30.1669 30.6172 30.7002C30.3172 31.4168 29.7498 31.9832 29.0332 32.2832C28.5001 32.4997 27.9669 32.5 27.084 32.5C26.2007 32.5 25.6671 32.4998 25.1338 32.2832C24.4172 31.9833 23.8508 31.4167 23.5508 30.7002C23.3341 30.1669 23.334 29.6333 23.334 28.75V13.75C23.334 12.8667 23.3341 12.3331 23.5508 11.7998C23.8508 11.0833 24.4172 10.5167 25.1338 10.2168C25.6671 10.0002 26.2007 10 27.084 10ZM3.75 22.5C3.31677 22.5 2.86664 22.4999 2.75 22.5332C2.65014 22.5666 2.58316 22.6501 2.5332 22.75C2.4999 22.8502 2.5 23.3001 2.5 23.75V28.75C2.5 29.1832 2.49989 29.6332 2.5332 29.75C2.56651 29.8499 2.65011 29.9334 2.75 29.9668C2.96656 30.0334 4.51549 30.0334 4.75 29.9668C4.84996 29.9335 4.9168 29.85 4.9668 29.75C5.00013 29.65 5 29.2 5 28.75V23.75C5 23.3167 5.00013 22.8667 4.9668 22.75C4.93344 22.65 4.84997 22.5665 4.75 22.5332C4.64932 22.5 4.19949 22.5 3.75 22.5ZM15.417 18.333C14.9837 18.333 14.5337 18.3339 14.417 18.3672C14.3172 18.4005 14.2502 18.4832 14.2002 18.583C14.1669 18.683 14.167 19.1331 14.167 19.583V28.75C14.167 29.1833 14.1669 29.6333 14.2002 29.75C14.2335 29.85 14.317 29.9335 14.417 29.9668C14.6338 30.0334 16.1835 30.0334 16.417 29.9668C16.517 29.9335 16.5838 29.85 16.6338 29.75C16.6671 29.65 16.667 29.2 16.667 28.75V19.583C16.667 19.1498 16.6671 18.6996 16.6338 18.583C16.6004 18.4832 16.5168 18.4005 16.417 18.3672C16.317 18.3339 15.867 18.333 15.417 18.333ZM27.084 12.5C26.6511 12.5 26.2012 12.5 26.084 12.5332C25.984 12.5665 25.9172 12.65 25.8672 12.75C25.8339 12.85 25.834 13.3 25.834 13.75V28.75C25.834 29.1833 25.8339 29.6333 25.8672 29.75C25.9005 29.85 25.984 29.9335 26.084 29.9668C26.3019 30.0334 27.8508 30.0334 28.084 29.9668C28.1839 29.9334 28.2508 29.8499 28.3008 29.75C28.3341 29.6498 28.334 29.1999 28.334 28.75V13.75C28.334 13.3168 28.3341 12.8668 28.3008 12.75C28.2675 12.6501 28.1839 12.5666 28.084 12.5332C27.984 12.4999 27.5339 12.5 27.084 12.5ZM2.91406 17.501H2.89746C2.89996 17.501 2.90278 17.5 2.90527 17.5C2.9082 17.5 2.91113 17.501 2.91406 17.501ZM27.917 0C28.6003 8.23805e-08 29.167 0.566667 29.167 1.25V6.25C29.167 6.93333 28.6003 7.5 27.917 7.5C27.2337 7.5 26.667 6.93333 26.667 6.25V4.33984C23.8897 7.05563 16.7334 12.956 3.29785 17.4346C3.16703 17.4836 3.03609 17.4994 2.90527 17.5C2.39188 17.4961 1.89712 17.164 1.73145 16.6504C1.51501 16.0005 1.86476 15.284 2.51465 15.0674C15.5047 10.733 22.425 4.96615 24.957 2.5H22.917C22.2337 2.5 21.667 1.93333 21.667 1.25C21.667 0.566667 22.2337 0 22.917 0H27.917Z" fill="currentColor"/>
</svg>
