<svg viewBox="0 0 20 22" fill="none" xmlns="http://www.w3.org/2000/svg">
<path d="M10.3223 6C11.2487 6 12 6.75128 12 7.67773C12 10.3297 12.2909 12.9737 12.8662 15.5625L13.8516 20H14.75C15.1642 20 15.5 20.3358 15.5 20.75C15.5 21.1642 15.1642 21.5 14.75 21.5L0.75 21.5C0.335786 21.5 0 21.1642 0 20.75C0 20.3358 0.335786 20 0.75 20H1.64844L2.63477 15.5625C3.21003 12.9737 3.49998 10.3297 3.5 7.67773C3.5 6.75128 4.25128 6 5.17773 6L10.3223 6ZM5.17773 7.5C5.07971 7.5 5 7.57971 5 7.67773C4.99998 10.4392 4.69769 13.1929 4.09863 15.8887L3.18555 20L12.3145 20L11.4014 15.8887C10.8023 13.1929 10.5 10.4392 10.5 7.67773C10.5 7.57971 10.4203 7.5 10.3223 7.5L5.17773 7.5ZM14.75 0C15.1642 0 15.5 0.335786 15.5 0.75C15.5 1.16421 15.1642 1.5 14.75 1.5L10.75 1.5C9.50736 1.5 8.5 2.50736 8.5 3.75C8.5 4.16421 8.16421 4.5 7.75 4.5C7.33579 4.5 7 4.16421 7 3.75C7 1.67893 8.67893 0 10.75 0L14.75 0ZM16.75 3C17.1642 3 17.5 3.33579 17.5 3.75C17.5 4.16421 17.1642 4.5 16.75 4.5L10.75 4.5C10.3358 4.5 10 4.16421 10 3.75C10 3.33579 10.3358 3 10.75 3L16.75 3ZM18.75 0C19.1642 0 19.5 0.335786 19.5 0.75C19.5 1.16421 19.1642 1.5 18.75 1.5L17.75 1.5C17.3358 1.5 17 1.16421 17 0.75C17 0.335786 17.3358 0 17.75 0L18.75 0Z" fill="#717680"/>
</svg>
