<svg width="24" height="24" viewBox="0 0 24 24" fill="none" xmlns="http://www.w3.org/2000/svg">
<path d="M12.0498 3.25C12.7145 3.24996 13.2874 3.24986 13.7461 3.31152C14.2376 3.37764 14.7086 3.527 15.0908 3.90918C15.473 4.29136 15.6224 4.76236 15.6885 5.25391C15.7092 5.40783 15.7233 5.57512 15.7324 5.75391C19.6289 5.87662 22.75 9.07371 22.75 13V15.8027C22.7501 15.983 22.7499 16.1382 22.7324 16.2783C22.605 17.3003 21.8003 18.105 20.7783 18.2324C20.6382 18.2499 20.483 18.2501 20.3027 18.25H20.1621C19.8235 19.6832 18.5367 20.75 17 20.75C15.4633 20.75 14.1765 19.6832 13.8379 18.25L10.1621 18.25C9.82345 19.6832 8.53672 20.75 7 20.75C5.46155 20.75 4.17381 19.6808 3.83691 18.2451C3.655 18.2415 3.48774 18.2353 3.33691 18.2217C3.00788 18.1918 2.68207 18.1255 2.375 17.9482C2.03306 17.7508 1.74921 17.4669 1.55176 17.125C1.37447 16.8179 1.30817 16.4921 1.27832 16.1631C1.25011 15.8518 1.24998 15.472 1.25 15.0322L1.25 12.75C1.25 12.3358 1.58579 12 2 12C2.41421 12 2.75 12.3358 2.75 12.75L2.75 15C2.75 15.4811 2.75112 15.7919 2.77246 16.0273C2.79287 16.2524 2.827 16.3341 2.85059 16.375C2.9164 16.489 3.01102 16.5836 3.125 16.6494C3.16586 16.673 3.24761 16.7071 3.47266 16.7275C3.57711 16.737 3.69649 16.742 3.83887 16.7451C4.17928 15.3143 5.46501 14.25 7 14.25C8.53672 14.25 9.82345 15.3168 10.1621 16.75L13.8379 16.75C13.9264 16.3755 14.0786 16.0258 14.2842 15.7139C14.2639 15.6458 14.25 15.5746 14.25 15.5L14.25 7C14.25 6.27178 14.2488 5.80097 14.2021 5.4541C14.1584 5.1288 14.0874 5.02682 14.0303 4.96973C13.9732 4.91263 13.8712 4.84159 13.5459 4.79785C13.199 4.75123 12.7282 4.75 12 4.75L2 4.75C1.58579 4.75 1.25 4.41421 1.25 4C1.25 3.58579 1.58579 3.25 2 3.25L12.0498 3.25ZM7 15.75C6.0335 15.75 5.25 16.5335 5.25 17.5C5.25 18.4665 6.0335 19.25 7 19.25C7.9665 19.25 8.75 18.4665 8.75 17.5C8.75 16.5335 7.9665 15.75 7 15.75ZM17 15.75C16.0335 15.75 15.25 16.5335 15.25 17.5C15.25 18.4665 16.0335 19.25 17 19.25C17.9665 19.25 18.75 18.4665 18.75 17.5C18.75 16.5335 17.9665 15.75 17 15.75ZM15.75 14.5C16.1349 14.3394 16.5569 14.25 17 14.25C18.5367 14.25 19.8235 15.3168 20.1621 16.75H20.2627C20.5052 16.75 20.5582 16.7484 20.5928 16.7441C20.9334 16.7017 21.2017 16.4334 21.2441 16.0928C21.2484 16.0582 21.25 16.0052 21.25 15.7627V13C21.25 9.90813 18.8097 7.38577 15.75 7.25488L15.75 14.5ZM6 9.25C6.41421 9.25 6.75 9.58579 6.75 10C6.75 10.4142 6.41421 10.75 6 10.75L2 10.75C1.58579 10.75 1.25 10.4142 1.25 10C1.25 9.58579 1.58579 9.25 2 9.25L6 9.25ZM8 6.25C8.41421 6.25 8.75 6.58579 8.75 7C8.75 7.41421 8.41421 7.75 8 7.75L2 7.75C1.58579 7.75 1.25 7.41421 1.25 7C1.25 6.58579 1.58579 6.25 2 6.25L8 6.25Z" fill="currentColor"/>
</svg>
