<svg viewBox="0 0 36 30" fill="none" xmlns="http://www.w3.org/2000/svg">
<path d="M17.999 0C19.1071 -6.21875e-05 20.0626 -0.000255403 20.8271 0.102539C21.6462 0.212713 22.4315 0.460936 23.0684 1.09766C23.7054 1.73471 23.9543 2.52048 24.0645 3.33984C24.0987 3.59455 24.1215 3.87046 24.1367 4.16602L26.8066 4.16602C27.4519 4.16598 28.0226 4.1664 28.501 4.21289C29.0195 4.2633 29.524 4.37498 30.0156 4.65332C30.5073 4.9317 30.8628 5.30684 31.1729 5.72559C31.4588 6.11177 31.7521 6.60109 32.084 7.1543L34.9434 11.9189C34.9634 11.9523 34.9832 11.9857 35.0029 12.0186C35.2986 12.5102 35.56 12.9458 35.6973 13.4414C35.8345 13.937 35.8346 14.4448 35.834 15.0186V19.6367C35.834 20.3695 35.8341 21.0017 35.7871 21.5205C35.7374 22.0691 35.6267 22.613 35.3311 23.125C35.002 23.6948 34.5288 24.168 33.959 24.4971C33.447 24.7927 32.9031 24.9034 32.3545 24.9531C32.103 24.9759 31.8248 24.9871 31.5215 24.9932C30.9594 27.3851 28.8135 29.166 26.25 29.166C23.689 29.1659 21.544 27.3886 20.9795 25H14.8545C14.29 27.3886 12.145 29.1659 9.58398 29.166C7.02043 29.166 4.87355 27.3852 4.31152 24.9932C4.00856 24.9871 3.73072 24.9759 3.47949 24.9531C2.93085 24.9034 2.38702 24.7927 1.875 24.4971C1.30519 24.168 0.831987 23.6948 0.50293 23.125C0.207314 22.613 0.0965998 22.0691 0.046875 21.5205C-0.000120971 21.0017 -2.76116e-05 20.3696 0 19.6367L0 6.16699C-6.21765e-05 5.05905 -0.000243047 4.10433 0.102539 3.33984C0.212706 2.52046 0.461564 1.73472 1.09863 1.09766C1.73568 0.460699 2.52149 0.212695 3.34082 0.102539C4.10534 -0.00022641 5.05999 -6.21803e-05 6.16797 0L17.999 0ZM9.58398 20.833C7.97315 20.833 6.66699 22.1392 6.66699 23.75C6.66717 25.3607 7.97326 26.666 9.58398 26.666C11.1946 26.6658 12.4998 25.3606 12.5 23.75C12.5 22.1393 11.1947 20.8332 9.58398 20.833ZM26.25 20.833C24.6393 20.8332 23.334 22.1393 23.334 23.75C23.3342 25.3606 24.6394 26.6658 26.25 26.666C27.8607 26.666 29.1668 25.3607 29.167 23.75C29.167 22.1392 27.8608 20.833 26.25 20.833ZM6.25 2.5C5.03642 2.5 4.2519 2.50237 3.67383 2.58008C3.13165 2.65297 2.96137 2.77106 2.86621 2.86621C2.77113 2.96141 2.65387 3.13149 2.58105 3.67285C2.50333 4.25098 2.5 5.03615 2.5 6.25L2.5 19.583C2.5 20.3847 2.50156 20.9025 2.53711 21.2949C2.57112 21.6702 2.62865 21.8069 2.66797 21.875C2.77761 22.0648 2.93523 22.2224 3.125 22.332C3.19311 22.3714 3.32984 22.4289 3.70508 22.4629C3.87922 22.4787 4.07805 22.487 4.31543 22.4922C4.88258 20.1072 7.02548 18.333 9.58398 18.333C12.1452 18.3332 14.2903 20.1111 14.8545 22.5H20.9795C21.1264 21.8781 21.38 21.2978 21.7207 20.7793C21.6859 20.6644 21.667 20.5423 21.667 20.416L21.667 6.25C21.667 5.03615 21.6646 4.25098 21.5869 3.67285C21.5141 3.1311 21.3959 2.96139 21.3008 2.86621C21.2056 2.77106 21.0353 2.65297 20.4932 2.58008C19.9151 2.50241 19.1305 2.5 17.917 2.5L6.25 2.5ZM24.167 18.748C24.8082 18.4806 25.5119 18.3331 26.25 18.333C28.8084 18.333 30.9503 20.1074 31.5176 22.4922C31.7554 22.487 31.9545 22.4787 32.1289 22.4629C32.5041 22.4289 32.6409 22.3714 32.709 22.332C32.8988 22.2224 33.0564 22.0648 33.166 21.875C33.2053 21.8069 33.2629 21.6702 33.2969 21.2949C33.3324 20.9025 33.334 20.3847 33.334 19.583V15.1348C33.334 14.3802 33.323 14.2346 33.2881 14.1084C33.2531 13.9823 33.1869 13.8519 32.7988 13.2051L29.9687 8.4873C29.6007 7.87396 29.3691 7.48987 29.1641 7.21289C28.9751 6.95767 28.8656 6.87424 28.7842 6.82813C28.7027 6.78203 28.5747 6.73188 28.2588 6.70117C27.9158 6.66785 27.468 6.66602 26.7529 6.66602L24.167 6.66602L24.167 18.748ZM12.4805 5.47461C12.9084 4.93312 13.6947 4.84073 14.2363 5.26855L16.7139 7.22559C16.7346 7.24199 16.7547 7.25909 16.7754 7.27539C17.381 7.75366 17.9324 8.18823 18.3213 8.59082C18.7332 9.01729 19.1669 9.60903 19.167 10.416C19.167 11.2232 18.7333 11.8157 18.3213 12.2422C17.9324 12.6447 17.381 13.0794 16.7754 13.5576C16.7548 13.5739 16.7346 13.591 16.7139 13.6074L14.2363 15.5645C13.6946 15.9923 12.9084 15.8992 12.4805 15.3574C12.0528 14.8157 12.145 14.0304 12.6865 13.6025L15.1367 11.666L6.25 11.666C5.55979 11.6658 5 11.1063 5 10.416C5.0002 9.72594 5.55992 9.16619 6.25 9.16602L15.1367 9.16602L12.6865 7.23047C12.1448 6.80256 12.0526 6.01635 12.4805 5.47461Z" fill="currentColor"/>
</svg>
