<svg viewBox="0 0 21 21" fill="none" xmlns="http://www.w3.org/2000/svg">
<path d="M0.732605 12.3555C1.14671 12.346 1.49071 12.6748 1.50018 13.0889C1.56158 15.7733 1.83296 17.0222 2.65546 17.8447C3.47796 18.6672 4.72684 18.9386 7.41132 19C7.82542 19.0095 8.15418 19.3535 8.14471 19.7676C8.13502 20.1815 7.7911 20.5095 7.37714 20.5C4.74784 20.4399 2.89309 20.2035 1.59491 18.9053C0.296735 17.6071 0.0603079 15.7523 0.000183105 13.123C-0.00928184 12.7091 0.318701 12.3652 0.732605 12.3555ZM19.7678 12.3555C20.1817 12.3652 20.5096 12.7091 20.5002 13.123C20.4401 15.7523 20.2036 17.6071 18.9055 18.9053C17.6073 20.2035 15.7525 20.4399 13.1232 20.5C12.7093 20.5095 12.3653 20.1815 12.3557 19.7676C12.3462 19.3535 12.6749 19.0095 13.0891 19C15.7735 18.9386 17.0224 18.6672 17.8449 17.8447C18.6674 17.0222 18.9388 15.7733 19.0002 13.0889C19.0097 12.6748 19.3537 12.346 19.7678 12.3555ZM14.259 13.25C14.8113 13.25 15.259 13.6977 15.259 14.25C15.259 14.8023 14.8113 15.25 14.259 15.25H14.2502C13.6979 15.25 13.2502 14.8023 13.2502 14.25C13.2502 13.6977 13.6979 13.25 14.2502 13.25H14.259ZM13.7199 5.71973C14.0128 5.42683 14.4876 5.42683 14.7805 5.71973C15.0733 6.01262 15.0733 6.48738 14.7805 6.78027L6.78046 14.7803C6.48756 15.0732 6.0128 15.0732 5.71991 14.7803C5.42702 14.4874 5.42702 14.0126 5.71991 13.7197L13.7199 5.71973ZM7.37714 0C7.7911 -0.00946494 8.13502 0.318518 8.14471 0.732422C8.15418 1.14653 7.82542 1.49053 7.41132 1.5C4.72684 1.5614 3.47796 1.83277 2.65546 2.65527C1.83296 3.47777 1.56158 4.72666 1.50018 7.41113C1.49071 7.82524 1.14671 8.154 0.732605 8.14453C0.318701 8.13484 -0.00928183 7.79092 0.000183105 7.37695C0.0603082 4.74765 0.296732 2.8929 1.59491 1.59473C2.89309 0.296549 4.74784 0.0601251 7.37714 0ZM13.1232 0C15.7525 0.0601247 17.6073 0.296551 18.9055 1.59473C20.2036 2.8929 20.4401 4.74765 20.5002 7.37695C20.5096 7.79092 20.1817 8.13484 19.7678 8.14453C19.3537 8.154 19.0097 7.82524 19.0002 7.41113C18.9388 4.72666 18.6674 3.47777 17.8449 2.65527C17.0224 1.83278 15.7735 1.5614 13.0891 1.5C12.6749 1.49053 12.3462 1.14653 12.3557 0.732422C12.3653 0.318518 12.7093 -0.00946494 13.1232 0ZM6.25897 5.25C6.81126 5.25 7.25897 5.69772 7.25897 6.25C7.25897 6.80228 6.81126 7.25 6.25897 7.25H6.25018C5.6979 7.25 5.25018 6.80228 5.25018 6.25C5.25018 5.69772 5.6979 5.25 6.25018 5.25H6.25897Z" fill="#717680"/>
</svg>
