<svg viewBox="0 0 35 35" fill="none" xmlns="http://www.w3.org/2000/svg">
<path d="M17.083 0C18.0142 0 18.8771 0.364145 19.9668 0.824219C20.0288 0.850396 20.0917 0.876571 20.1553 0.90332L29.3818 4.78809C30.3197 5.18293 31.1146 5.51823 31.7383 5.86426C32.4015 6.23233 32.9731 6.66559 33.4014 7.31055C33.8297 7.95573 34.008 8.65094 34.0898 9.40527C34.1667 10.1143 34.1661 10.9767 34.166 11.9941L34.166 32.916C34.166 33.6064 33.6064 34.166 32.916 34.166H27.916C27.2258 34.1658 26.666 33.6063 26.666 32.916L26.666 16.25C26.666 15.4293 26.6634 14.9391 26.6162 14.5879C26.5946 14.427 26.5696 14.3459 26.5547 14.3096C26.5512 14.3012 26.5486 14.2952 26.5469 14.292L26.5439 14.2881L26.54 14.2861C26.5368 14.2845 26.5315 14.2817 26.5234 14.2783C26.4871 14.2634 26.406 14.2375 26.2451 14.2158C25.8939 14.1686 25.4039 14.166 24.583 14.166L9.58301 14.166C8.76213 14.166 8.27209 14.1686 7.9209 14.2158C7.75997 14.2375 7.67888 14.2634 7.64258 14.2783C7.63447 14.2817 7.62917 14.2845 7.62598 14.2861L7.62207 14.2881L7.61914 14.292C7.61746 14.2952 7.61479 14.3012 7.61133 14.3096C7.59639 14.3459 7.57143 14.4271 7.5498 14.5879C7.50264 14.9391 7.5 15.4293 7.5 16.25L7.5 32.916C7.5 33.6063 6.94021 34.1658 6.25 34.166H1.25C0.559644 34.166 0 33.6064 0 32.916L0 11.9941C-3.45676e-05 10.9767 -0.000724513 10.1143 0.0761719 9.40527C0.158006 8.65094 0.336265 7.95573 0.764648 7.31055C1.19295 6.66559 1.76447 6.23233 2.42773 5.86426C3.05139 5.51823 3.84635 5.18292 4.78418 4.78809C4.80401 4.77974 4.82379 4.7711 4.84375 4.7627L14.0107 0.90332C14.0743 0.876573 14.1372 0.850395 14.1992 0.824219C15.2889 0.364146 16.1518 1.44313e-06 17.083 0ZM18.8242 21.666C19.5456 21.6659 20.2071 21.6659 20.7451 21.7383C21.3375 21.8179 21.9635 22.0056 22.4785 22.5205C22.9934 23.0354 23.1811 23.6616 23.2607 24.2539C23.3331 24.7919 23.3331 25.4536 23.333 26.1748V29.6572C23.3331 30.3785 23.333 31.0401 23.2607 31.5781C23.1811 32.1706 22.9936 32.7975 22.4785 33.3125C21.9636 33.8273 21.3374 34.0141 20.7451 34.0937C20.2071 34.1661 19.5456 34.1661 18.8242 34.166H15.3418C14.6204 34.1661 13.9589 34.1661 13.4209 34.0938C12.8286 34.0141 12.2024 33.8273 11.6875 33.3125C11.1725 32.7975 10.9849 32.1706 10.9053 31.5781C10.833 31.0401 10.8329 30.3785 10.833 29.6572V26.1748C10.8329 25.4536 10.8329 24.7919 10.9053 24.2539C10.985 23.6616 11.1726 23.0354 11.6875 22.5205C12.2025 22.0056 12.8285 21.8179 13.4209 21.7383C13.9589 21.6659 14.6204 21.6659 15.3418 21.666H18.8242ZM17.083 2.5C16.7211 2.5 16.3529 2.63055 14.9814 3.20801L5.81445 7.06738C4.80052 7.4943 4.13176 7.7773 3.64063 8.0498C3.17669 8.30725 2.9756 8.50082 2.84766 8.69336C2.71972 8.88604 2.6188 9.14689 2.56152 9.6748C2.50096 10.2332 2.5 10.9594 2.5 12.0596L2.5 31.666H5L5 16.1748C4.99991 15.4536 4.99994 14.7919 5.07227 14.2539C5.15195 13.6616 5.33874 13.0354 5.85352 12.5205C6.36855 12.0055 6.99542 11.8179 7.58789 11.7383C8.12587 11.666 8.78754 11.6659 9.50879 11.666L24.6572 11.666C25.3785 11.6659 26.0402 11.666 26.5781 11.7383C27.1706 11.8179 27.7975 12.0055 28.3125 12.5205C28.8273 13.0354 29.0141 13.6616 29.0938 14.2539C29.1661 14.7919 29.1661 15.4536 29.166 16.1748L29.166 31.666H31.666L31.666 12.0596C31.666 10.9594 31.6651 10.2332 31.6045 9.6748C31.5472 9.14689 31.4463 8.88604 31.3184 8.69336C31.1904 8.50082 30.9893 8.30725 30.5254 8.0498C30.0343 7.7773 29.3655 7.4943 28.3516 7.06738L19.1846 3.20801C17.8131 2.63055 17.445 2.5 17.083 2.5ZM15.416 24.166C14.5952 24.166 14.1051 24.1686 13.7539 24.2158C13.5934 24.2374 13.513 24.2634 13.4766 24.2783C13.4682 24.2818 13.4622 24.2844 13.459 24.2861L13.4551 24.2881L13.4531 24.292C13.4515 24.2952 13.4487 24.3013 13.4453 24.3096C13.4304 24.3459 13.4044 24.427 13.3828 24.5879C13.3357 24.9391 13.333 25.4293 13.333 26.25V29.583C13.333 30.4039 13.3356 30.8939 13.3828 31.2451C13.4044 31.406 13.4304 31.4871 13.4453 31.5234C13.4487 31.5316 13.4515 31.5369 13.4531 31.54L13.4551 31.5439L13.459 31.5469C13.4622 31.5486 13.4682 31.5512 13.4766 31.5547C13.513 31.5696 13.5936 31.5946 13.7539 31.6162C14.1051 31.6634 14.5952 31.666 15.416 31.666H18.75C19.5708 31.666 20.0609 31.6634 20.4121 31.6162C20.5724 31.5946 20.653 31.5696 20.6895 31.5547C20.6978 31.5512 20.7038 31.5486 20.707 31.5469L20.7109 31.5439L20.7129 31.54C20.7145 31.5369 20.7173 31.5316 20.7207 31.5234C20.7356 31.4871 20.7616 31.406 20.7832 31.2451C20.8304 30.8939 20.833 30.4039 20.833 29.583V26.25C20.833 25.4293 20.8304 24.9391 20.7832 24.5879C20.7616 24.427 20.7356 24.3459 20.7207 24.3096C20.7173 24.3013 20.7146 24.2952 20.7129 24.292L20.7109 24.2881L20.707 24.2861C20.7038 24.2844 20.6979 24.2818 20.6895 24.2783C20.653 24.2634 20.5726 24.2374 20.4121 24.2158C20.0609 24.1686 19.5708 24.166 18.75 24.166H15.416ZM18.75 6.66602C19.4401 6.66619 19.9998 7.22592 20 7.91602C20 8.60626 19.4402 9.16584 18.75 9.16602L15.416 9.16602C14.7258 9.16584 14.166 8.60626 14.166 7.91602C14.1662 7.22592 14.7259 6.66619 15.416 6.66602L18.75 6.66602Z" fill="currentColor"/>
</svg>
