<svg viewBox="0 0 16 20" fill="none" xmlns="http://www.w3.org/2000/svg">
<path opacity="0.4" d="M7.75 9.5C5.13 9.5 3 7.37 3 4.75C3 2.13 5.13 0 7.75 0C10.37 0 12.5 2.13 12.5 4.75C12.5 7.37 10.37 9.5 7.75 9.5ZM7.75 1.5C5.96 1.5 4.5 2.96 4.5 4.75C4.5 6.54 5.96 8 7.75 8C9.54 8 11 6.54 11 4.75C11 2.96 9.54 1.5 7.75 1.5Z" fill="#161616"/>
<path d="M12.75 19.5H2.75C1.23 19.5 0 18.27 0 16.75C0 13.58 2.58 11 5.75 11H9.75C12.92 11 15.5 13.58 15.5 16.75C15.5 18.27 14.27 19.5 12.75 19.5ZM5.75 12.5C3.41 12.5 1.5 14.41 1.5 16.75C1.5 17.44 2.06 18 2.75 18H12.75C13.44 18 14 17.44 14 16.75C14 14.41 12.09 12.5 9.75 12.5H5.75Z" fill="#161616"/>
</svg>
