<svg viewBox="0 0 24 24" fill="none" xmlns="http://www.w3.org/2000/svg">
<path d="M17.5 11.25C19.5546 11.25 21.5205 12.4632 22.3467 14.3945C23.1187 16.1995 22.6911 17.7491 21.8408 19.0371C21.1493 20.0845 20.1377 21.0163 19.2656 21.8193C19.1124 21.9604 18.9634 22.0974 18.8213 22.2305C18.4631 22.5658 17.9887 22.75 17.5 22.75C17.0113 22.75 16.5369 22.5658 16.1787 22.2305L16.1777 22.2295C16.0278 22.0883 15.8695 21.9422 15.707 21.792C14.8437 20.9941 13.8455 20.0706 13.1611 19.0361C12.3098 17.7493 11.8803 16.2016 12.6533 14.3945C13.4795 12.4632 15.4454 11.25 17.5 11.25ZM17.5 12.75C16.0123 12.75 14.6093 13.6353 14.0322 14.9844C13.5076 16.2109 13.7611 17.225 14.4121 18.209C14.9871 19.078 15.8243 19.8545 16.6895 20.6562C16.8608 20.815 17.0334 20.975 17.2051 21.1367C17.2805 21.207 17.3859 21.25 17.5 21.25C17.6144 21.25 17.7204 21.2064 17.7959 21.1357C17.9566 20.9852 18.1178 20.8357 18.2783 20.6875C19.1557 19.8773 20.0076 19.0904 20.5889 18.21C21.2393 17.2247 21.4917 16.2092 20.9678 14.9844C20.3907 13.6353 18.9877 12.75 17.5 12.75ZM7.98828 1.25098C8.49475 1.23451 8.95906 1.34976 9.4541 1.54199C9.92736 1.72579 10.4758 2.00029 11.1445 2.33496L14.5068 4.01758C14.7442 4.13637 14.8895 4.20577 14.9902 4.25C14.9935 4.24996 14.9967 4.25 15 4.25C15.1284 4.25 15.2478 4.2849 15.3535 4.3418C15.4629 4.34905 15.6273 4.35254 15.9209 4.35254H18.0527C18.95 4.35251 19.7007 4.35315 20.2969 4.43555C20.9286 4.52291 21.4976 4.71506 21.9521 5.18262C22.4036 5.64711 22.5873 6.2229 22.6709 6.8623C22.7505 7.47125 22.75 8.2398 22.75 9.16602V10C22.7499 10.4141 22.4142 10.75 22 10.75C21.5859 10.75 21.2501 10.4141 21.25 10V9.21777C21.25 8.22734 21.249 7.55694 21.1836 7.05664C21.1207 6.57608 21.0101 6.36644 20.876 6.22852C20.7447 6.09352 20.5493 5.98417 20.0918 5.9209C19.6105 5.85434 18.9646 5.85254 18 5.85254H15.8594C15.8223 5.85256 15.7858 5.85063 15.75 5.85059V9.5C15.7499 9.91413 15.4142 10.25 15 10.25C14.5858 10.25 14.2501 9.91413 14.25 9.5V5.55859C14.1374 5.50582 14.0183 5.45019 13.8916 5.38672C13.8732 5.37751 13.8547 5.36779 13.8359 5.3584L10.5039 3.69141C9.79644 3.33738 9.31104 3.09575 8.91113 2.94043C8.85505 2.91865 8.80086 2.9004 8.75 2.88281V16.3193C9.25306 16.4096 9.71471 16.6017 10.1191 16.8008C10.3418 16.9104 10.5589 17.0275 10.7598 17.1367L10.7891 17.1533C10.9828 17.2586 11.1613 17.3559 11.3359 17.4434C11.706 17.6288 11.8561 18.079 11.6709 18.4492C11.4855 18.8196 11.0345 18.9695 10.6641 18.7842C10.4658 18.6849 10.2667 18.5766 10.0791 18.4746L10.043 18.4551C9.84013 18.3448 9.64784 18.2409 9.45605 18.1465C9.06958 17.9563 8.72719 17.8269 8.40234 17.7822C7.65875 17.6802 7.05171 18.0346 6.11914 18.5791L6.0625 18.6123C5.44361 18.9736 4.92891 19.2733 4.50293 19.4668C4.07217 19.6625 3.60394 19.8125 3.10938 19.7236C2.57483 19.6276 2.09594 19.3385 1.75684 18.915C1.4464 18.5273 1.34268 18.0476 1.2959 17.5693C1.24956 17.0953 1.24999 16.4889 1.25 15.7549V7.46387C1.24998 6.90897 1.24968 6.4401 1.28711 6.05176C1.32683 5.6398 1.41333 5.2602 1.61914 4.89648C1.82571 4.53157 2.10698 4.26409 2.43945 4.02246C2.75105 3.79605 3.14927 3.5632 3.61719 3.29004C3.62723 3.28418 3.63736 3.27836 3.64746 3.27246L4.90527 2.53809C5.55208 2.16045 6.08215 1.85095 6.54297 1.63672C7.02501 1.41266 7.48174 1.26751 7.98828 1.25098ZM7.17578 2.99707C6.78602 3.17824 6.3162 3.45104 5.63184 3.85059L4.40332 4.56836C3.89681 4.86407 3.56481 5.05937 3.32129 5.23633C3.09197 5.40299 2.98989 5.5199 2.9248 5.63477C2.85912 5.75081 2.80846 5.9032 2.78027 6.19531C2.75058 6.50326 2.75 6.90034 2.75 7.49902V15.7158C2.75 16.4994 2.75071 17.0317 2.78906 17.4238C2.82783 17.8199 2.89601 17.9379 2.92773 17.9775C3.04411 18.1228 3.20388 18.2163 3.375 18.2471C3.41117 18.2535 3.53304 18.2605 3.88281 18.1016C4.23043 17.9436 4.67833 17.6832 5.3418 17.2959C5.3946 17.2651 5.44887 17.2336 5.50391 17.2012C5.99633 16.9109 6.57784 16.5678 7.25 16.3887V2.96484C7.22599 2.97553 7.20087 2.98541 7.17578 2.99707ZM17.5088 15.5C18.0611 15.5 18.5088 15.9477 18.5088 16.5C18.5087 17.0522 18.061 17.5 17.5088 17.5H17.5C16.9478 17.5 16.5001 17.0522 16.5 16.5C16.5 15.9477 16.9477 15.5 17.5 15.5H17.5088Z" fill="currentColor"/>
</svg>
