<svg viewBox="0 0 17 22" fill="none" xmlns="http://www.w3.org/2000/svg">
<path d="M12.7715 0C12.9858 -1.2815e-05 13.1833 0.00043869 13.3487 0.0117187C13.5262 0.0238552 13.7216 0.0506594 13.92 0.132812C14.3487 0.310426 14.6896 0.651321 14.8672 1.08008C14.9494 1.27841 14.9762 1.47385 14.9883 1.65137C14.9996 1.81669 15 2.01424 15 2.22852V2.27148C15 2.48576 14.9996 2.68331 14.9883 2.84863C14.9762 3.02616 14.9494 3.22159 14.8672 3.41992C14.6896 3.84868 14.3487 4.18957 13.92 4.36719C13.886 4.38127 13.8511 4.39127 13.8174 4.40234L14.4287 5.10059C15.3178 6.11617 15.8922 6.77284 16.1963 7.58203C16.5004 8.39139 16.5004 9.26418 16.5 10.6143V14.8047C16.5001 16.1721 16.5004 17.2747 16.3838 18.1416C16.2628 19.0417 16.0033 19.7994 15.4014 20.4014C14.7995 21.0033 14.0417 21.2628 13.1416 21.3838C12.2747 21.5003 11.1722 21.5 9.80472 21.5L6.69534 21.5C5.32783 21.5 4.22538 21.5003 3.35843 21.3838C2.45832 21.2628 1.70058 21.0033 1.09866 20.4014C0.496764 19.7995 0.237256 19.0417 0.116241 18.1416C-0.000293077 17.2747 9.89591e-06 16.1722 3.05176e-05 14.8047L3.05176e-05 10.6143C-0.000322792 9.26418 -0.000363639 8.39139 0.303741 7.58203C0.607882 6.77274 1.18302 6.11637 2.0723 5.10059L2.68167 4.40234C2.64823 4.39134 2.61381 4.38115 2.58011 4.36719C2.15135 4.18957 1.81046 3.84868 1.63284 3.41992C1.55069 3.22159 1.52389 3.02616 1.51175 2.84863C1.50047 2.68331 1.50002 2.48576 1.50003 2.27148L1.50003 2.22852C1.50002 2.01424 1.50047 1.81669 1.51175 1.65137C1.52389 1.47385 1.55069 1.27841 1.63284 1.08008C1.81046 0.651321 2.15135 0.310426 2.58011 0.132812C2.77844 0.05066 2.97388 0.0238553 3.1514 0.0117187C3.31672 0.00043869 3.51427 -1.2815e-05 3.72855 0L12.7715 0ZM3.29398 5.98145C2.27924 7.14114 1.90466 7.58644 1.70804 8.10938C1.51147 8.63253 1.50003 9.21441 1.50003 10.7559L1.50003 14.75C1.50003 16.1852 1.50205 17.1861 1.60355 17.9414C1.7022 18.6752 1.88245 19.0641 2.15921 19.3408C2.43597 19.6176 2.82485 19.7978 3.55862 19.8965C4.31393 19.998 5.31488 20 6.75003 20L9.75003 20C11.1852 20 12.1861 19.998 12.9414 19.8965C13.6752 19.7978 14.0641 19.6176 14.3409 19.3408C14.6176 19.0641 14.7979 18.6752 14.8965 17.9414C14.998 17.1861 15 16.1852 15 14.75L15 10.7559C15 9.21441 14.9886 8.63253 14.792 8.10937C14.5954 7.58644 14.2208 7.14114 13.2061 5.98145L11.9102 4.5L4.58987 4.5L3.29398 5.98145ZM8.22073 7.5C8.63495 7.5 8.97073 7.83579 8.97073 8.25V8.56738C9.17745 8.61337 9.37711 8.67738 9.56448 8.75586C10.3322 9.07747 11.0658 9.72267 11.2266 10.6172C11.2999 11.0248 11.0287 11.4149 10.6211 11.4883C10.2135 11.5616 9.82337 11.2904 9.75003 10.8828C9.71064 10.6636 9.47446 10.3449 8.98441 10.1396C8.51603 9.94356 7.96671 9.92305 7.51273 10.1357C6.80508 10.4673 6.64998 10.9559 6.68655 11.2168C6.71582 11.424 6.92713 11.8303 7.82816 11.876C7.95554 11.8824 8.09939 11.8858 8.25101 11.8896C8.59573 11.8983 8.98071 11.9079 9.30374 11.9541C9.82752 12.0291 10.3881 12.2138 10.8477 12.7119C11.2978 13.1998 11.5891 14.0041 11.4746 14.8027C11.3492 15.6777 10.7518 16.4573 9.60941 16.8203C9.39696 16.8878 9.1831 16.9365 8.97073 16.9687V17.25C8.97073 17.6642 8.63495 18 8.22073 18C7.80667 17.9998 7.47073 17.6641 7.47073 17.25V16.9248C7.15017 16.8563 6.84683 16.7512 6.57034 16.6162C5.74637 16.2137 5.00025 15.4469 5.00003 14.4336C5.00003 14.0194 5.33582 13.6836 5.75003 13.6836C6.16424 13.6836 6.50003 14.0194 6.50003 14.4336C6.50028 14.6495 6.68143 15.0013 7.22855 15.2686C7.74803 15.5223 8.45721 15.6124 9.1553 15.3906C9.7916 15.1884 9.95264 14.8523 9.99026 14.5898C10.0388 14.2511 9.89839 13.8956 9.74515 13.7295C9.60138 13.5737 9.41562 13.486 9.09085 13.4395C8.85193 13.4053 8.62242 13.3999 8.3389 13.3936C8.16781 13.3897 7.97688 13.3854 7.75198 13.374C6.37188 13.3041 5.36099 12.5584 5.2012 11.4268C5.04912 10.3488 5.7382 9.31088 6.87698 8.77734C7.07145 8.68628 7.27036 8.61788 7.47073 8.57031V8.25C7.47073 7.8359 7.80667 7.50018 8.22073 7.5Z" fill="currentColor"/>
</svg>
