<svg viewBox="0 0 20 22" fill="none" xmlns="http://www.w3.org/2000/svg">
<path d="M9.75018 0C10.4265 0.000157892 10.9127 0.483417 11.1701 0.775391C11.3191 0.944383 11.4522 1.12228 11.5588 1.2666C11.5729 1.28571 11.5859 1.30481 11.5988 1.32227C11.6929 1.44978 11.7559 1.53449 11.8088 1.5957C11.9557 1.76595 12.0465 1.84731 12.1271 1.89551C12.191 1.93367 12.2797 1.97024 12.4514 1.97266C12.6272 1.97509 12.8178 1.91843 13.1642 1.81641C13.177 1.81265 13.1901 1.80857 13.2033 1.80469C13.5148 1.71303 13.9895 1.57474 14.4924 1.65039C14.7109 1.68327 14.9977 1.76183 15.2199 1.98535C15.483 2.25021 15.5259 2.58 15.4875 2.8291C15.4542 3.04437 15.3604 3.22395 15.299 3.33008C15.2407 3.43077 15.1724 3.52912 15.1271 3.59473C15.1217 3.60262 15.1162 3.61031 15.1115 3.61719L14.1789 4.97559C14.1598 5.00335 14.1402 5.03099 14.1213 5.05859C13.9962 5.24134 13.8727 5.41875 13.7375 5.58398C14.0987 5.80931 14.3706 6.07219 14.7131 6.40527L14.7404 6.43164C16.6064 8.24611 18.7451 11.3253 19.4328 15.4629C19.7234 17.2121 19.0514 18.7473 17.8967 19.8193C16.7535 20.8805 15.1328 21.4999 13.4426 21.5H6.05878C4.3682 21.5 2.74699 20.8807 1.6037 19.8193C0.448951 18.7473 -0.223015 17.2121 0.0675659 15.4629C0.755323 11.3251 2.89491 8.24608 4.76093 6.43164C4.76988 6.42293 4.77843 6.41389 4.78729 6.40527C5.12941 6.07253 5.40138 5.81013 5.7619 5.58496C5.6265 5.41956 5.50331 5.24155 5.37811 5.05859C5.35929 5.03109 5.34048 5.00325 5.32147 4.97559L4.38788 3.61719C4.38318 3.61035 4.37864 3.60256 4.37323 3.59473C4.32801 3.52919 4.25969 3.43083 4.20135 3.33008C4.13993 3.22395 4.04613 3.04437 4.01288 2.8291C3.97441 2.57999 4.01632 2.25024 4.27948 1.98535C4.50162 1.76178 4.78847 1.6833 5.00702 1.65039C5.5098 1.57474 5.98461 1.71303 6.29608 1.80469C6.30918 1.80854 6.32247 1.81267 6.33514 1.81641C6.68157 1.91843 6.87223 1.97509 7.04803 1.97266C7.22007 1.97027 7.30932 1.93373 7.37323 1.89551C7.45371 1.8473 7.54393 1.76561 7.69061 1.5957C7.74343 1.53451 7.80658 1.4497 7.90057 1.32227C7.91345 1.30481 7.9265 1.28571 7.94061 1.2666C8.04723 1.12225 8.18026 0.944442 8.32928 0.775391C8.5867 0.483386 9.07356 0 9.75018 0ZM8.67303 6.5C7.65803 6.5 7.32232 6.50972 6.91229 6.67676C6.4895 6.849 6.32179 7.00516 5.80585 7.50684C4.11953 9.14664 2.17201 11.9486 1.54706 15.708C1.3495 16.8966 1.78882 17.9441 2.62421 18.7197C3.47126 19.5061 4.72031 20 6.05878 20H13.4426C14.7808 19.9999 16.0292 19.506 16.8762 18.7197C17.7117 17.9441 18.1509 16.8966 17.9533 15.708C17.3284 11.9484 15.3809 9.1466 13.6945 7.50684C13.1785 7.00512 13.0109 6.84901 12.5881 6.67676C12.1782 6.50983 11.843 6.5 10.8283 6.5H8.67303ZM9.84003 12.4229C9.85757 12.4231 9.87564 12.4236 9.89374 12.4238C10.0592 12.4261 10.2466 12.4285 10.425 12.4443C10.8586 12.4828 11.3215 12.6054 11.7521 13.0117C12.2268 13.4596 12.4431 14.2035 12.3264 14.8838C12.1972 15.6359 11.6665 16.3162 10.6984 16.584C10.5796 16.6168 10.4607 16.6446 10.342 16.666V16.7422C10.342 17.1564 10.0062 17.4922 9.59198 17.4922C9.17777 17.4922 8.84198 17.1564 8.84198 16.7422V16.6465C8.66014 16.6074 8.48556 16.5545 8.3205 16.4902C7.66429 16.2349 7.00757 15.7175 6.86932 14.9307C6.79784 14.5229 7.06997 14.1343 7.47772 14.0625C7.88569 13.9908 8.27518 14.2639 8.34686 14.6719C8.3577 14.7315 8.45789 14.9346 8.86444 15.0928C9.07345 15.1741 9.33046 15.2243 9.60468 15.2285L9.61737 13.917C9.65798 13.9181 9.69738 13.9192 9.73553 13.9199L9.69159 12.4189C9.74086 12.4201 9.79019 12.4221 9.84003 12.4229ZM9.77362 15.2256C9.94383 15.216 10.1206 15.188 10.299 15.1387C10.5228 15.0768 10.6462 14.9852 10.716 14.9082C10.7869 14.8299 10.8296 14.736 10.8478 14.6299C10.8906 14.3806 10.7872 14.1632 10.7228 14.1025C10.6144 14.0003 10.5134 13.9581 10.2922 13.9385C10.1729 13.9279 10.0432 13.9264 9.86444 13.9238C9.84964 13.9236 9.83404 13.9231 9.81854 13.9229C9.79167 13.9225 9.76384 13.9204 9.73553 13.9199L9.77362 15.2256ZM9.64862 10.9463L9.64569 11.25C9.62793 11.2513 9.61006 11.2529 9.59198 11.2529C9.58561 11.2529 9.57878 11.2521 9.57245 11.252C9.40581 11.2614 9.22201 11.3015 9.02264 11.3828C8.5833 11.562 8.46894 11.8769 8.47675 12.0039C8.47979 12.0531 8.49819 12.1116 8.58026 12.1787C8.67359 12.255 8.87846 12.3618 9.27557 12.3984C9.39833 12.4098 9.51586 12.4135 9.633 12.417L9.61737 13.917C9.47171 13.9131 9.31059 13.9075 9.13788 13.8916C8.53631 13.8361 8.01812 13.6572 7.63007 13.3398C7.23095 13.0134 7.00883 12.5701 6.97968 12.0957C6.92316 11.1753 7.57474 10.3537 8.45624 9.99414C8.58547 9.94143 8.71426 9.89811 8.84198 9.86328V9.74219C8.84198 9.32797 9.17777 8.99219 9.59198 8.99219L9.64862 10.9463ZM9.65741 11.25L9.69159 12.4189C9.67204 12.4185 9.65253 12.4176 9.633 12.417L9.64569 11.25H9.65741ZM9.66913 8.99609C10.0471 9.03472 10.342 9.35402 10.342 9.74219V9.83984C11.2169 10.0631 11.8904 10.6954 12.1008 11.4717C12.209 11.8713 11.973 12.2831 11.5734 12.3916C11.1737 12.4999 10.7619 12.2639 10.6535 11.8643C10.589 11.6259 10.2347 11.253 9.65741 11.25L9.64862 10.9463L9.66913 8.99609ZM9.75018 1.50586C9.72081 1.52109 9.62465 1.57547 9.45526 1.76758C9.3529 1.88369 9.25291 2.01568 9.14764 2.1582C9.13534 2.17486 9.12259 2.19226 9.10956 2.20996C9.02238 2.32844 8.92021 2.46645 8.82635 2.5752C8.65431 2.77452 8.43659 3.00789 8.14276 3.18359C7.83227 3.36921 7.48023 3.46598 7.06854 3.47168C6.65701 3.47733 6.25212 3.35764 5.97186 3.27344L6.5578 4.12598C6.98834 4.75263 7.06469 4.82286 7.22968 4.8877C7.33439 4.92884 7.48545 4.96313 7.77264 4.98145C8.06519 5.00008 8.44233 5 8.99139 5H10.508C11.0572 5 11.4342 5.00008 11.7267 4.98145C12.014 4.96314 12.165 4.92882 12.2697 4.8877C12.4348 4.82284 12.5119 4.7529 12.9426 4.12598L13.5275 3.27344C13.2472 3.35766 12.8424 3.47738 12.4308 3.47168C12.0191 3.46597 11.6671 3.36928 11.3566 3.18359C11.0628 3.00789 10.8451 2.77452 10.673 2.5752C10.5792 2.46644 10.477 2.32841 10.3898 2.20996C10.3768 2.19227 10.364 2.17484 10.3517 2.1582C10.2465 2.01576 10.1474 1.88363 10.0451 1.76758C9.87612 1.57588 9.77991 1.5213 9.75018 1.50586Z" fill="currentColor"/>
</svg>
