<svg viewBox="0 0 24 24" fill="none" xmlns="http://www.w3.org/2000/svg">
<path d="M1.96985 2.29492C2.20185 2.27392 7.68236 1.8072 10.3234 4.4502C11.4093 5.53513 11.9214 7.09138 11.6925 8.61328C11.6305 9.02327 11.249 9.30515 10.84 9.24316C10.43 9.18216 10.1481 8.80062 10.2101 8.39062C10.3681 7.33863 10.0138 6.26172 9.26282 5.51172C8.16993 4.41883 6.31525 4.00462 4.95129 3.85059C4.07339 3.7516 3.27905 3.74482 2.75305 3.75781C2.74006 4.28281 2.74684 5.07817 2.84583 5.95605C2.99986 7.32001 3.4131 9.17472 4.50598 10.2666C5.51547 11.2769 7.04929 11.5172 8.30383 10.9346C6.91865 8.76985 5.54264 7.59827 5.51672 7.5752C5.19983 7.30929 5.15729 6.83653 5.422 6.51953C5.687 6.20253 6.15966 6.15885 6.47766 6.42285C6.54398 6.47797 8.08669 7.77873 9.63098 10.2246C9.73005 10.3815 9.82972 10.5459 9.93079 10.7168C9.93562 10.7229 9.94173 10.7281 9.94641 10.7344C9.98504 10.7859 10.0127 10.8424 10.0363 10.8994C10.8291 12.2726 11.647 14.0656 12.174 16.2285C12.634 15.0666 13.26 13.942 14.049 12.8779C12.828 11.1493 13.0015 8.76843 14.5392 7.23047C16.9133 4.85536 21.8209 5.27077 22.0314 5.28906C22.3922 5.32205 22.6779 5.60696 22.7111 5.96777C22.7301 6.17577 23.1455 11.0849 20.7697 13.46C19.9447 14.286 18.8175 14.751 17.6525 14.751V14.752C17.5906 14.752 17.5288 14.751 17.4669 14.748C17.0529 14.73 16.7311 14.3808 16.7491 13.9668C16.7663 13.5641 17.0985 13.2492 17.4982 13.249H17.5304C18.3444 13.284 19.1361 12.9744 19.7101 12.4004C20.664 11.4464 21.0263 9.81808 21.1613 8.61914C21.2443 7.88515 21.2542 7.21592 21.2462 6.75293C20.7833 6.74395 20.1156 6.75396 19.381 6.83789C18.1831 6.97388 16.5547 7.33616 15.6007 8.29004C14.6916 9.19916 14.5058 10.5559 15.0568 11.6484C16.3693 10.1925 17.5253 9.41385 17.5822 9.37598C17.927 9.1463 18.3922 9.2393 18.6222 9.58398C18.8521 9.92788 18.7589 10.394 18.4152 10.624C18.3452 10.671 12.7484 14.5093 12.7482 21C12.7482 21.4139 12.4121 21.7499 11.9982 21.75V21.751C11.6875 21.751 11.4206 21.5623 11.3068 21.293C11.2685 21.203 11.2472 21.1039 11.2472 21C11.2472 17.304 10.1728 14.3268 9.06262 12.2354C8.37981 12.5762 7.63525 12.7451 6.89172 12.7451C5.63478 12.7451 4.38339 12.2651 3.44543 11.3262C0.803986 8.68506 1.26912 3.20585 1.29114 2.97363C1.32413 2.61366 1.60889 2.32796 1.96985 2.29492Z" fill="currentColor"/>
</svg>
