<svg width="21" height="21" viewBox="0 0 21 21" fill="none" xmlns="http://www.w3.org/2000/svg">
<path d="M0.804688 13C2.17218 13 3.27466 12.9997 4.1416 13.1162C5.04171 13.2372 5.79945 13.4967 6.40137 14.0986C7.00328 14.7005 7.26277 15.4583 7.38379 16.3584C7.50032 17.2253 7.50002 18.3278 7.5 19.6953V19.75C7.5 20.1642 7.16421 20.5 6.75 20.5C6.33579 20.5 6 20.1642 6 19.75C6 18.3148 5.99798 17.3139 5.89648 16.5586C5.79783 15.8248 5.61758 15.4359 5.34082 15.1592C5.06406 14.8824 4.67518 14.7022 3.94141 14.6035C3.1861 14.502 2.18515 14.5 0.75 14.5C0.335786 14.5 0 14.1642 0 13.75C6.12046e-07 13.3358 0.335787 13 0.75 13C0.768276 13 0.786505 13 0.804688 13ZM10.25 17C10.6642 17 11 17.3358 11 17.75V19.75C11 20.1642 10.6642 20.5 10.25 20.5C9.83579 20.5 9.5 20.1642 9.5 19.75V17.75C9.5 17.3358 9.83579 17 10.25 17ZM19.75 13C20.1642 13 20.5 13.3358 20.5 13.75C20.5 14.1642 20.1642 14.5 19.75 14.5C18.3148 14.5 17.3139 14.502 16.5586 14.6035C15.8248 14.7022 15.4359 14.8824 15.1592 15.1592C14.8824 15.4359 14.7022 15.8248 14.6035 16.5586C14.502 17.3139 14.5 18.3148 14.5 19.75C14.5 20.1642 14.1642 20.5 13.75 20.5C13.3358 20.5 13 20.1642 13 19.75V19.6953C13 18.3278 12.9997 17.2253 13.1162 16.3584C13.2372 15.4583 13.4967 14.7005 14.0986 14.0986C14.7005 13.4967 15.4583 13.2372 16.3584 13.1162C17.2253 12.9997 18.3278 13 19.6953 13H19.75ZM10.25 6.5C12.321 6.5 13.9999 8.17899 14 10.25C14 12.3211 12.3211 14 10.25 14C8.17893 14 6.5 12.3211 6.5 10.25C6.50007 8.17899 8.17897 6.5 10.25 6.5ZM10.25 8C9.0074 8 8.00007 9.00742 8 10.25C8 11.4926 9.00736 12.5 10.25 12.5C11.4926 12.5 12.5 11.4926 12.5 10.25C12.4999 9.00742 11.4926 8 10.25 8ZM2.75 9.5C3.16421 9.5 3.5 9.83579 3.5 10.25C3.5 10.6642 3.16421 11 2.75 11H0.75C0.335786 11 6.4576e-08 10.6642 0 10.25C1.81058e-08 9.83579 0.335786 9.5 0.75 9.5H2.75ZM19.75 9.5C20.1642 9.5 20.5 9.83579 20.5 10.25C20.5 10.6642 20.1642 11 19.75 11H17.75C17.3358 11 17 10.6642 17 10.25C17 9.83579 17.3358 9.5 17.75 9.5H19.75ZM6.75 0C7.16421 0 7.5 0.335786 7.5 0.75V0.804688C7.50002 2.17218 7.50032 3.27466 7.38379 4.1416C7.26277 5.04171 7.00328 5.79945 6.40137 6.40137C5.79945 7.00328 5.04171 7.26277 4.1416 7.38379C3.27466 7.50032 2.17218 7.50002 0.804688 7.5H0.75C0.335786 7.5 0 7.16421 0 6.75C0 6.33579 0.335786 6 0.75 6C2.18515 6 3.1861 5.99798 3.94141 5.89648C4.67518 5.79783 5.06406 5.61758 5.34082 5.34082C5.61758 5.06406 5.79783 4.67518 5.89648 3.94141C5.99798 3.1861 6 2.18515 6 0.75C6 0.335786 6.33579 0 6.75 0ZM13.75 0C14.1642 0 14.5 0.335786 14.5 0.75C14.5 2.18515 14.502 3.1861 14.6035 3.94141C14.7022 4.67518 14.8824 5.06406 15.1592 5.34082C15.4359 5.61758 15.8248 5.79783 16.5586 5.89648C17.3139 5.99798 18.3148 6 19.75 6C20.1642 6 20.5 6.33579 20.5 6.75C20.5 7.16421 20.1642 7.5 19.75 7.5H19.6953C18.3278 7.50002 17.2253 7.50032 16.3584 7.38379C15.4583 7.26277 14.7005 7.00328 14.0986 6.40137C13.4967 5.79945 13.2372 5.04171 13.1162 4.1416C12.9997 3.27466 13 2.17218 13 0.804688C13 0.786505 13 0.768276 13 0.75C13 0.335787 13.3358 6.12041e-07 13.75 0ZM10.25 0C10.6642 0 11 0.335786 11 0.75V2.75C11 3.16421 10.6642 3.5 10.25 3.5C9.83579 3.5 9.5 3.16421 9.5 2.75V0.75C9.5 0.335786 9.83579 0 10.25 0Z" fill="#717680"/>
</svg>
