<svg viewBox="0 0 20 20" fill="none" xmlns="http://www.w3.org/2000/svg">
<path d="M13.9297 0C15.2296 0 16.1397 0.000436981 16.9297 0.400391C17.7197 0.800391 18.2698 1.52031 19.0498 2.57031C19.0798 2.61029 19.1204 2.66001 19.1504 2.70996C19.1703 2.73982 19.1998 2.76994 19.2197 2.7998C19.7497 3.5098 20.1196 3.99031 20.3096 4.57031C20.4995 5.15019 20.5 5.75992 20.5 6.63965V11.8096C20.5 13.6496 20.4996 15.1002 20.3496 16.2402C20.1896 17.4101 19.8603 18.3604 19.1104 19.1104C18.3604 19.8603 17.4101 20.1896 16.2402 20.3496C15.1002 20.4996 13.6496 20.5 11.8096 20.5H8.7002C6.8602 20.5 5.40953 20.4996 4.26953 20.3496C3.09996 20.1896 2.15022 19.86 1.40039 19.1104C0.650444 18.3604 0.320169 17.4101 0.160156 16.2402C0.000156254 15.1002 0 13.6396 0 11.8096V6.63965C3.36635e-09 5.75992 0.00050574 5.15019 0.19043 4.57031C0.38043 3.99031 0.750273 3.4998 1.28027 2.7998C1.30024 2.76994 1.32967 2.73982 1.34961 2.70996C1.37958 2.66001 1.4202 2.62025 1.4502 2.57031C2.2402 1.52031 2.78031 0.790391 3.57031 0.400391C4.37029 0.000437528 5.27013 0 6.58008 0H13.9297ZM1.53027 5.5C1.50027 5.77 1.5 6.14 1.5 6.75V11.75C1.5 13.66 1.49965 15.01 1.63965 16.04C1.76965 17.05 2.0302 17.6298 2.4502 18.0498C2.8702 18.4698 3.44996 18.7204 4.45996 18.8604C5.48996 19.0004 6.84001 19 8.75 19H11.75C13.66 19 15.01 19.0004 16.04 18.8604C17.05 18.7304 17.6298 18.4698 18.0498 18.0498C18.4698 17.6298 18.7204 17.05 18.8604 16.04C19.0004 15.01 19 13.66 19 11.75V6.75C19 6.14 18.9897 5.77 18.9697 5.5H13.4902V6.7998C13.4902 7.2298 13.4902 7.6302 13.4502 7.9502C13.4002 8.3101 13.2903 8.68031 12.9805 8.99023C12.6706 9.30011 12.3003 9.40993 11.9404 9.45996C11.6204 9.49996 11.22 9.5 10.79 9.5H9.7002C9.2702 9.5 8.8698 9.49996 8.5498 9.45996C8.18987 9.40995 7.81971 9.30018 7.50977 8.99023C7.19982 8.68029 7.09005 8.31013 7.04004 7.9502C7.00004 7.6302 7 7.2298 7 6.7998V5.5H1.53027ZM8.7998 12C9.2298 12 9.6302 12 9.9502 12.04C10.3101 12.0901 10.6803 12.1998 10.9902 12.5098C11.3002 12.8197 11.4099 13.1899 11.46 13.5498C11.5 13.8698 11.5 14.2702 11.5 14.7002V14.79C11.5 15.22 11.5 15.6204 11.46 15.9404C11.4099 16.3003 11.3001 16.6706 10.9902 16.9805C10.6803 17.2903 10.3101 17.4002 9.9502 17.4502C9.6302 17.4902 9.2298 17.4902 8.7998 17.4902H5.70996C5.27998 17.4902 4.87956 17.4902 4.55957 17.4502C4.19969 17.4002 3.82942 17.2904 3.51953 16.9805C3.20964 16.6706 3.09983 16.3003 3.0498 15.9404C3.00981 15.6204 3.00977 15.22 3.00977 14.79V14.7002C3.00977 14.2702 3.0098 13.8698 3.0498 13.5498C3.09981 13.1899 3.20967 12.8197 3.51953 12.5098C3.82941 12.1999 4.1997 12.0901 4.55957 12.04C4.87956 12 5.27998 12 5.70996 12H8.7998ZM5.75977 13.5C5.2699 13.5 4.96973 13.5003 4.75977 13.5303C4.65996 13.5403 4.61982 13.5603 4.58984 13.5703H4.58008V13.5801C4.58003 13.6001 4.56001 13.6501 4.54004 13.75C4.51004 13.96 4.50977 14.25 4.50977 14.75C4.50977 15.25 4.51004 15.54 4.54004 15.75C4.55003 15.8499 4.57007 15.8999 4.58008 15.9199C4.58008 15.9199 4.58008 15.92 4.58008 15.9297H4.58984C4.60983 15.9297 4.65995 15.9497 4.75977 15.9697C4.96973 15.9997 5.25991 16 5.75977 16H8.75977C9.24962 16 9.54978 15.9997 9.75977 15.9697C9.85956 15.9597 9.89971 15.9397 9.92969 15.9297H9.94043V15.9199C9.94048 15.8999 9.96049 15.8499 9.98047 15.75C10.0105 15.54 10.0098 15.2399 10.0098 14.75C10.0098 14.2601 10.0105 13.96 9.98047 13.75C9.97051 13.6504 9.95047 13.6002 9.94043 13.5801C9.94043 13.5801 9.94043 13.58 9.94043 13.5703C9.94043 13.5703 9.93969 13.5703 9.92969 13.5703C9.90948 13.5701 9.85925 13.5502 9.75977 13.5303C9.54978 13.5003 9.25961 13.5 8.75977 13.5H5.75977ZM8.5 5.5V6.75C8.5 7.24 8.50027 7.54 8.53027 7.75C8.55024 7.84984 8.57026 7.89987 8.57031 7.91992V7.92969H8.58008C8.61007 7.93969 8.65002 7.95973 8.75 7.96973C8.96 7.99973 9.26 8 9.75 8H10.75C11.25 8 11.54 7.99973 11.75 7.96973C11.8498 7.94976 11.8999 7.92974 11.9199 7.92969H11.9297V7.91992C11.9397 7.88992 11.9597 7.84998 11.9697 7.75C11.9997 7.54 12 7.24 12 6.75V5.5H8.5ZM6.74023 1.5C5.19056 1.5 4.67041 1.52037 4.23047 1.74023C3.7905 1.96022 3.45989 2.35982 2.54004 3.59961C2.43007 3.74956 2.33021 3.88003 2.24023 4H7.16016L7.78027 1.5H6.74023ZM13.3301 4H18.25C18.16 3.88 18.0602 3.74961 17.9502 3.59961C17.0203 2.35973 16.6897 1.96023 16.2598 1.74023C15.8198 1.52028 15.2999 1.5 13.75 1.5H12.71L13.3301 4ZM8.71973 4H11.79L11.1699 1.5H9.33984L8.71973 4Z" fill="currentColor"/>
</svg>
