<svg viewBox="0 0 35 35" fill="none" xmlns="http://www.w3.org/2000/svg">
<path d="M27.083 34.167C29.1541 34.167 30.833 32.4881 30.833 30.417C30.833 29.2383 30.2889 28.1875 29.4385 27.5H32.917C33.6072 27.4998 34.167 26.9402 34.167 26.25C34.1668 25.5599 33.6071 25.0002 32.917 25L16.2529 25C14.9013 25 14.0118 24.9977 13.3438 24.9082C12.7166 24.8242 12.4456 24.6812 12.2568 24.5068C12.0605 24.3254 11.8779 24.0387 11.709 23.3652C11.5329 22.6631 11.4114 21.7176 11.2334 20.3086L9.34473 5.36035C9.22202 4.38852 9.11668 3.54963 8.94922 2.88184C8.77045 2.16909 8.4854 1.49181 7.90039 0.951172C7.30781 0.403667 6.61212 0.185422 5.8916 0.0888672C5.23029 0.000289217 4.41747 -6.90421e-05 3.49609 0H1.25C0.559756 3.21991e-08 0.000181484 0.559798 0 1.25C0 1.94036 0.559644 2.5 1.25 2.5H3.41895C4.44124 2.5 5.08403 2.50271 5.55957 2.56641C5.99393 2.62461 6.12702 2.71588 6.2041 2.78711C6.28884 2.86542 6.40419 3.01482 6.52344 3.49023C6.64985 3.99434 6.73953 4.68139 6.87402 5.74609L8.7627 20.6973C8.92855 22.0106 9.06711 23.1069 9.28418 23.9727C9.51259 24.8835 9.86302 25.6989 10.5596 26.3428C11.2639 26.9937 12.0984 27.2634 13.0117 27.3857C13.0674 27.3932 13.1242 27.3997 13.1816 27.4063C12.2625 28.0897 11.667 29.1836 11.667 30.417C11.667 32.4881 13.3459 34.167 15.417 34.167C17.4879 34.1668 19.167 32.488 19.167 30.417C19.167 29.2382 18.622 28.1875 17.7715 27.5L24.7285 27.5C23.878 28.1875 23.333 29.2382 23.333 30.417C23.333 32.488 25.0121 34.1668 27.083 34.167ZM26.3369 22.5C27.8343 22.5 29.083 22.5005 30.0742 22.3672C31.1204 22.2265 32.0651 21.9172 32.8242 21.1582C33.5832 20.3992 33.8925 19.4544 34.0332 18.4082C34.1665 17.4169 34.167 16.1674 34.167 14.6699L34.167 11.1641C34.167 9.66659 34.1665 8.41709 34.0332 7.42578C33.8925 6.37963 33.5832 5.43479 32.8242 4.67578C32.0651 3.9168 31.1204 3.60747 30.0742 3.4668C29.083 3.33353 27.8343 3.33394 26.3369 3.33398L22.8301 3.33398C21.3327 3.33394 20.084 3.33355 19.0928 3.4668C18.0466 3.60745 17.1018 3.9169 16.3428 4.67578C15.5837 5.43481 15.2735 6.3796 15.1328 7.42578C14.9995 8.41708 15 9.6666 15 11.1641L15 14.6699C15 16.1674 14.9995 17.4169 15.1328 18.4082C15.2735 19.4544 15.5837 20.3992 16.3428 21.1582C17.1018 21.9171 18.0466 22.2265 19.0928 22.3672C20.084 22.5004 21.3327 22.5 22.8301 22.5L26.3369 22.5ZM22.917 20C21.3104 20 20.2308 19.9979 19.4258 19.8896C18.6567 19.7862 18.3275 19.6068 18.1104 19.3896C17.8932 19.1725 17.7147 18.8431 17.6113 18.0742C17.5031 17.2693 17.5 16.1902 17.5 14.584V11.25C17.5 9.64375 17.5031 8.56473 17.6113 7.75977C17.7147 6.99086 17.8932 6.66153 18.1104 6.44434C18.3275 6.22714 18.6567 6.04774 19.4258 5.94434C20.2308 5.83612 21.3104 5.83398 22.917 5.83398L26.25 5.83398C27.8567 5.83398 28.9361 5.8361 29.7412 5.94434C30.5102 6.04774 30.8395 6.22716 31.0566 6.44434C31.2737 6.66153 31.4523 6.99104 31.5557 7.75977C31.6638 8.56473 31.667 9.64378 31.667 11.25V14.584C31.667 16.1902 31.6638 17.2693 31.5557 18.0742C31.4523 18.8429 31.2737 19.1725 31.0566 19.3896C30.8395 19.6068 30.5102 19.7862 29.7412 19.8896C28.9362 19.9979 27.8567 20 26.25 20L22.917 20ZM25.417 10.834C26.1071 10.8338 26.6668 10.2741 26.667 9.58398C26.667 8.89374 26.1072 8.33416 25.417 8.33398L23.75 8.33398C23.0596 8.33398 22.5 8.89363 22.5 9.58398C22.5002 10.2742 23.0598 10.834 23.75 10.834L25.417 10.834ZM15.417 31.667C14.7266 31.667 14.167 31.1073 14.167 30.417C14.167 29.7266 14.7266 29.167 15.417 29.167C16.1072 29.1672 16.667 29.7267 16.667 30.417C16.667 31.1072 16.1072 31.6668 15.417 31.667ZM27.083 31.667C26.3928 31.6668 25.833 31.1072 25.833 30.417C25.833 29.7267 26.3928 29.1672 27.083 29.167C27.7734 29.167 28.333 29.7266 28.333 30.417C28.333 31.1073 27.7734 31.667 27.083 31.667Z" fill="currentColor"/>
</svg>
